<?xml version="1.0" encoding="UTF-8"?>
<svg width="64" height="64" viewBox="0 0 64 64" xmlns="http://www.w3.org/2000/svg" role="img" aria-label="Santa hat">
  <title>Santa Hat</title>
  <desc>Stylized Santa hat with shading and soft details</desc>
  <defs>
    <linearGradient id="hatRed" x1="0%" y1="0%" x2="0%" y2="100%">
      <stop offset="0%" stop-color="#FF3B47"/>
      <stop offset="60%" stop-color="#E02530"/>
      <stop offset="100%" stop-color="#BF1E28"/>
    </linearGradient>
    <linearGradient id="furShade" x1="0%" y1="0%" x2="0%" y2="100%">
      <stop offset="0%" stop-color="#FFFFFF"/>
      <stop offset="100%" stop-color="#F0F0F0"/>
    </linearGradient>
    <filter id="softShadow" x="-20%" y="-20%" width="140%" height="140%">
      <feGaussianBlur in="SourceAlpha" stdDeviation="1.6" result="blur"/>
      <feOffset in="blur" dx="0" dy="1" result="offset"/>
      <feColorMatrix in="offset" type="matrix" values="0 0 0 0 0   0 0 0 0 0   0 0 0 0 0   0 0 0 0.25 0"/>
      <feMerge>
        <feMergeNode/>
        <feMergeNode in="SourceGraphic"/>
      </feMerge>
    </filter>
  </defs>

  <g fill="none" fill-rule="evenodd" filter="url(#softShadow)">
    <!-- Pom-pom -->
    <circle cx="52" cy="12" r="7" fill="url(#furShade)" stroke="#E5E7EB" stroke-width="1"/>

    <!-- Hat body -->
    <path d="M6 47c4.5-10.8 17.5-23.7 32.8-31.6C44.4 13 48.5 13.7 50.6 17c2.1 3.3 0.6 7-2.1 8.6-6.4 3.9-11.8 8.6-16.3 14.2 4.1 1.9 7.2 4.7 9.3 8.3H6z" fill="url(#hatRed)"/>
    <!-- Subtle highlight on hat body -->
    <path d="M10 45c6-11 16.5-21.5 28.5-27.8" stroke="#FF6B75" stroke-opacity="0.4" stroke-width="2" stroke-linecap="round"/>

    <!-- Fur brim -->
    <rect x="6" y="46" width="42" height="10" rx="5" fill="url(#furShade)" stroke="#E5E7EB"/>
    <!-- Fur texture -->
    <path d="M10 51c2.5 1.2 4.5 1.2 7 0M22 51c2.5 1.2 4.5 1.2 7 0M34 51c2.5 1.2 4.5 1.2 7 0" stroke="#D1D5DB" stroke-opacity="0.5" stroke-linecap="round"/>
  </g>
</svg>
